<svg preserveAspectRatio="none" overflow="visible" style="display: block;" width="17.5" height="17.5" viewBox="0 0 17.5 17.5" fill="none" xmlns="http://www.w3.org/2000/svg">
<g id="Icon">
<path id="Vector" d="M7.48708 15.3125C7.61508 15.5342 7.79918 15.7183 8.02087 15.8462C8.24255 15.9742 8.49402 16.0416 8.75 16.0416C9.00598 16.0416 9.25745 15.9742 9.47913 15.8462C9.70082 15.7183 9.88492 15.5342 10.0129 15.3125" stroke="#999999" stroke-width="1.45833" stroke-linecap="round" stroke-linejoin="round"/>
<path id="Vector_2" d="M2.37801 11.1778C2.28275 11.2822 2.21989 11.4121 2.19707 11.5515C2.17425 11.691 2.19245 11.8341 2.24946 11.9634C2.30647 12.0927 2.39984 12.2027 2.5182 12.2799C2.63655 12.3572 2.77481 12.3983 2.91613 12.3984H14.5828C14.7241 12.3985 14.8624 12.3575 14.9808 12.2804C15.0993 12.2033 15.1927 12.0935 15.2499 11.9642C15.3071 11.835 15.3254 11.6919 15.3028 11.5525C15.2802 11.413 15.2175 11.2831 15.1224 11.1785C14.1526 10.1789 13.1245 9.11646 13.1245 5.83594C13.1245 4.67562 12.6635 3.56282 11.8431 2.74235C11.0226 1.92187 9.90979 1.46094 8.74947 1.46094C7.58915 1.46094 6.47635 1.92187 5.65588 2.74235C4.8354 3.56282 4.37447 4.67562 4.37447 5.83594C4.37447 9.11646 3.34561 10.1789 2.37801 11.1778Z" stroke="#999999" stroke-width="1.45833" stroke-linecap="round" stroke-linejoin="round"/>
</g>
</svg>
